<svg xmlns="http://www.w3.org/2000/svg" xmlns:xlink="http://www.w3.org/1999/xlink" width="2000" zoomAndPan="magnify" viewBox="0 0 1500 749.999995" height="1000" preserveAspectRatio="xMidYMid meet" version="1.0"><defs><g/><clipPath id="3870c4029b"><path d="M 556.457031 112.8125 L 610.621094 112.8125 L 610.621094 164.355469 L 556.457031 164.355469 Z M 556.457031 112.8125 " clip-rule="nonzero"/></clipPath><clipPath id="de9fe50342"><path d="M 583.496094 112.8125 L 589.882812 132.5 L 610.539062 132.5 L 593.824219 144.667969 L 600.210938 164.355469 L 583.496094 152.1875 L 566.785156 164.355469 L 573.167969 144.667969 L 556.457031 132.5 L 577.113281 132.5 Z M 583.496094 112.8125 " clip-rule="nonzero"/></clipPath><clipPath id="917b79a081"><path d="M 0.457031 0.8125 L 54.621094 0.8125 L 54.621094 52.355469 L 0.457031 52.355469 Z M 0.457031 0.8125 " clip-rule="nonzero"/></clipPath><clipPath id="ef06023d29"><path d="M 27.496094 0.8125 L 33.882812 20.5 L 54.539062 20.5 L 37.824219 32.667969 L 44.210938 52.355469 L 27.496094 40.1875 L 10.785156 52.355469 L 17.167969 32.667969 L 0.457031 20.5 L 21.113281 20.5 Z M 27.496094 0.8125 " clip-rule="nonzero"/></clipPath><clipPath id="9261acfb18"><rect x="0" width="55" y="0" height="53"/></clipPath><clipPath id="2889670004"><path d="M 564.683594 174.167969 L 602.3125 174.167969 L 602.3125 350.644531 L 564.683594 350.644531 Z M 564.683594 174.167969 " clip-rule="nonzero"/></clipPath><clipPath id="a19e4ac76b"><path d="M 0.683594 0.167969 L 38.3125 0.167969 L 38.3125 176.644531 L 0.683594 176.644531 Z M 0.683594 0.167969 " clip-rule="nonzero"/></clipPath><clipPath id="28b35ead35"><rect x="0" width="39" y="0" height="177"/></clipPath><clipPath id="3e3b74cc0d"><rect x="0" width="1360" y="0" height="450"/></clipPath></defs><g transform="matrix(1, 0, 0, 1, 74, 151)"><g clip-path="url(#3e3b74cc0d)"><g fill="#ffffff" fill-opacity="1"><g transform="translate(1.000002, 350.966416)"><g><path d="M 22.96875 0 L 22.96875 -236.234375 L 120.578125 -236.234375 C 122.878906 -236.234375 125.832031 -236.148438 129.4375 -235.984375 C 133.050781 -235.828125 136.390625 -235.472656 139.453125 -234.921875 C 153.117188 -232.847656 164.40625 -228.3125 173.3125 -221.3125 C 182.226562 -214.3125 188.847656 -205.476562 193.171875 -194.8125 C 197.492188 -184.144531 199.65625 -172.304688 199.65625 -159.296875 C 199.65625 -140.046875 194.785156 -123.503906 185.046875 -109.671875 C 175.316406 -95.835938 160.390625 -87.28125 140.265625 -84 L 123.375 -82.515625 L 62.5 -82.515625 L 62.5 0 Z M 158.640625 0 L 112.046875 -96.140625 L 152.25 -105 L 203.421875 0 Z M 62.5 -119.4375 L 118.9375 -119.4375 C 121.125 -119.4375 123.582031 -119.546875 126.3125 -119.765625 C 129.050781 -119.984375 131.570312 -120.421875 133.875 -121.078125 C 140.4375 -122.710938 145.601562 -125.609375 149.375 -129.765625 C 153.144531 -133.921875 155.820312 -138.625 157.40625 -143.875 C 159 -149.125 159.796875 -154.265625 159.796875 -159.296875 C 159.796875 -164.328125 159 -169.492188 157.40625 -174.796875 C 155.820312 -180.097656 153.144531 -184.828125 149.375 -188.984375 C 145.601562 -193.140625 140.4375 -196.039062 133.875 -197.6875 C 131.570312 -198.34375 129.050781 -198.75 126.3125 -198.90625 C 123.582031 -199.070312 121.125 -199.15625 118.9375 -199.15625 L 62.5 -199.15625 Z M 62.5 -119.4375 "/></g></g></g><g fill="#ffffff" fill-opacity="1"><g transform="translate(217.547907, 350.966416)"><g><path d="M 72.515625 4.921875 C 59.710938 4.921875 48.878906 2.488281 40.015625 -2.375 C 31.160156 -7.238281 24.460938 -13.71875 19.921875 -21.8125 C 15.390625 -29.90625 13.125 -38.820312 13.125 -48.5625 C 13.125 -57.09375 14.546875 -64.773438 17.390625 -71.609375 C 20.234375 -78.441406 24.609375 -84.347656 30.515625 -89.328125 C 36.421875 -94.304688 44.078125 -98.378906 53.484375 -101.546875 C 60.585938 -103.847656 68.925781 -105.925781 78.5 -107.78125 C 88.070312 -109.644531 98.460938 -111.367188 109.671875 -112.953125 C 120.878906 -114.535156 132.609375 -116.257812 144.859375 -118.125 L 130.75 -110.078125 C 130.863281 -122.328125 128.128906 -131.347656 122.546875 -137.140625 C 116.972656 -142.941406 107.566406 -145.84375 94.328125 -145.84375 C 86.347656 -145.84375 78.640625 -143.984375 71.203125 -140.265625 C 63.765625 -136.546875 58.566406 -130.148438 55.609375 -121.078125 L 19.515625 -132.390625 C 23.890625 -147.378906 32.226562 -159.410156 44.53125 -168.484375 C 56.84375 -177.554688 73.441406 -182.09375 94.328125 -182.09375 C 110.078125 -182.09375 123.941406 -179.519531 135.921875 -174.375 C 147.898438 -169.238281 156.785156 -160.820312 162.578125 -149.125 C 165.742188 -142.894531 167.65625 -136.523438 168.3125 -130.015625 C 168.96875 -123.503906 169.296875 -116.421875 169.296875 -108.765625 L 169.296875 0 L 134.6875 0 L 134.6875 -38.390625 L 140.4375 -32.15625 C 132.445312 -19.351562 123.117188 -9.972656 112.453125 -4.015625 C 101.796875 1.941406 88.484375 4.921875 72.515625 4.921875 Z M 80.390625 -26.578125 C 89.359375 -26.578125 97.015625 -28.160156 103.359375 -31.328125 C 109.703125 -34.503906 114.757812 -38.390625 118.53125 -42.984375 C 122.300781 -47.578125 124.84375 -51.894531 126.15625 -55.9375 C 128.238281 -60.96875 129.414062 -66.738281 129.6875 -73.25 C 129.957031 -79.757812 130.09375 -85.035156 130.09375 -89.078125 L 142.234375 -85.46875 C 130.316406 -83.613281 120.09375 -81.972656 111.5625 -80.546875 C 103.03125 -79.128906 95.703125 -77.789062 89.578125 -76.53125 C 83.453125 -75.269531 78.035156 -73.875 73.328125 -72.34375 C 68.734375 -70.707031 64.847656 -68.796875 61.671875 -66.609375 C 58.503906 -64.421875 56.070312 -61.90625 54.375 -59.0625 C 52.6875 -56.21875 51.84375 -52.878906 51.84375 -49.046875 C 51.84375 -44.671875 52.9375 -40.816406 55.125 -37.484375 C 57.3125 -34.148438 60.507812 -31.5 64.71875 -29.53125 C 68.925781 -27.5625 74.148438 -26.578125 80.390625 -26.578125 Z M 80.390625 -26.578125 "/></g></g></g><g fill="#ffffff" fill-opacity="1"><g transform="translate(406.535147, 350.966416)"><g><path d="M 126.8125 0 C 115.113281 2.1875 103.65625 3.140625 92.4375 2.859375 C 81.226562 2.585938 71.191406 0.515625 62.328125 -3.359375 C 53.472656 -7.242188 46.75 -13.394531 42.15625 -21.8125 C 38.113281 -29.46875 35.984375 -37.285156 35.765625 -45.265625 C 35.546875 -53.253906 35.4375 -62.28125 35.4375 -72.34375 L 35.4375 -226.390625 L 74.8125 -226.390625 L 74.8125 -74.640625 C 74.8125 -67.535156 74.890625 -61.300781 75.046875 -55.9375 C 75.210938 -50.582031 76.335938 -46.207031 78.421875 -42.8125 C 82.359375 -36.25 88.644531 -32.582031 97.28125 -31.8125 C 105.925781 -31.050781 115.769531 -31.492188 126.8125 -33.140625 Z M 3.28125 -146.171875 L 3.28125 -177.171875 L 126.8125 -177.171875 L 126.8125 -146.171875 Z M 3.28125 -146.171875 "/></g></g></g><g fill="#ffffff" fill-opacity="1"><g transform="translate(548.603691, 350.966416)"><g/></g></g><g fill="#ffffff" fill-opacity="1"><g transform="translate(614.224303, 350.966416)"><g><path d="M 145.515625 0 L 145.515625 -85.3125 C 145.515625 -90.882812 145.128906 -97.0625 144.359375 -103.84375 C 143.597656 -110.625 141.820312 -117.160156 139.03125 -123.453125 C 136.25 -129.742188 132.09375 -134.910156 126.5625 -138.953125 C 121.039062 -143.003906 113.578125 -145.03125 104.171875 -145.03125 C 99.140625 -145.03125 94.160156 -144.207031 89.234375 -142.5625 C 84.316406 -140.925781 79.863281 -138.109375 75.875 -134.109375 C 71.882812 -130.117188 68.6875 -124.648438 66.28125 -117.703125 C 63.875 -110.765625 62.671875 -101.878906 62.671875 -91.046875 L 39.203125 -101.0625 C 39.203125 -116.15625 42.128906 -129.828125 47.984375 -142.078125 C 53.835938 -154.328125 62.453125 -164.085938 73.828125 -171.359375 C 85.203125 -178.628906 99.203125 -182.265625 115.828125 -182.265625 C 128.953125 -182.265625 139.78125 -180.078125 148.3125 -175.703125 C 156.84375 -171.328125 163.617188 -165.75 168.640625 -158.96875 C 173.671875 -152.1875 177.390625 -144.96875 179.796875 -137.3125 C 182.203125 -129.65625 183.757812 -122.410156 184.46875 -115.578125 C 185.1875 -108.742188 185.546875 -103.191406 185.546875 -98.921875 L 185.546875 0 Z M 22.640625 0 L 22.640625 -177.171875 L 57.90625 -177.171875 L 57.90625 -122.21875 L 62.671875 -122.21875 L 62.671875 0 Z M 22.640625 0 "/></g></g></g><g fill="#ffffff" fill-opacity="1"><g transform="translate(819.452596, 350.966416)"><g><path d="M 97.453125 83.671875 C 87.609375 83.671875 78.171875 82.140625 69.140625 79.078125 C 60.117188 76.015625 52 71.609375 44.78125 65.859375 C 37.5625 60.117188 31.65625 53.203125 27.0625 45.109375 L 63.484375 27.0625 C 66.878906 33.519531 71.664062 38.304688 77.84375 41.421875 C 84.019531 44.535156 90.609375 46.09375 97.609375 46.09375 C 105.816406 46.09375 113.144531 44.644531 119.59375 41.75 C 126.050781 38.851562 131.054688 34.585938 134.609375 28.953125 C 138.160156 23.316406 139.828125 16.289062 139.609375 7.875 L 139.609375 -42.484375 L 144.53125 -42.484375 L 144.53125 -177.171875 L 179.140625 -177.171875 L 179.140625 8.53125 C 179.140625 13.007812 178.945312 17.300781 178.5625 21.40625 C 178.1875 25.507812 177.5625 29.53125 176.6875 33.46875 C 174.0625 44.945312 169.03125 54.378906 161.59375 61.765625 C 154.15625 69.148438 144.941406 74.644531 133.953125 78.25 C 122.960938 81.863281 110.796875 83.671875 97.453125 83.671875 Z M 94 4.921875 C 77.707031 4.921875 63.488281 0.820312 51.34375 -7.375 C 39.207031 -15.582031 29.800781 -26.738281 23.125 -40.84375 C 16.457031 -54.957031 13.125 -70.875 13.125 -88.59375 C 13.125 -106.53125 16.484375 -122.523438 23.203125 -136.578125 C 29.929688 -150.628906 39.472656 -161.726562 51.828125 -169.875 C 64.191406 -178.019531 78.742188 -182.09375 95.484375 -182.09375 C 112.328125 -182.09375 126.460938 -178.019531 137.890625 -169.875 C 149.316406 -161.726562 157.984375 -150.597656 163.890625 -136.484375 C 169.796875 -122.378906 172.75 -106.414062 172.75 -88.59375 C 172.75 -70.976562 169.796875 -55.085938 163.890625 -40.921875 C 157.984375 -26.765625 149.175781 -15.582031 137.46875 -7.375 C 125.769531 0.820312 111.28125 4.921875 94 4.921875 Z M 100.078125 -30.515625 C 110.679688 -30.515625 119.238281 -32.945312 125.75 -37.8125 C 132.257812 -42.675781 137.015625 -49.484375 140.015625 -58.234375 C 143.023438 -66.984375 144.53125 -77.101562 144.53125 -88.59375 C 144.53125 -100.1875 143.023438 -110.328125 140.015625 -119.015625 C 137.015625 -127.710938 132.34375 -134.492188 126 -139.359375 C 119.65625 -144.234375 111.453125 -146.671875 101.390625 -146.671875 C 90.773438 -146.671875 82.019531 -144.070312 75.125 -138.875 C 68.238281 -133.675781 63.15625 -126.675781 59.875 -117.875 C 56.59375 -109.070312 54.953125 -99.3125 54.953125 -88.59375 C 54.953125 -77.757812 56.566406 -67.941406 59.796875 -59.140625 C 63.023438 -50.335938 67.972656 -43.363281 74.640625 -38.21875 C 81.316406 -33.082031 89.796875 -30.515625 100.078125 -30.515625 Z M 100.078125 -30.515625 "/></g></g></g><g fill="#c9a86a" fill-opacity="1"><g transform="translate(1021.573305, 350.966416)"><g><path d="M 26.25 0 L 26.25 -236.234375 L 65.78125 -236.234375 L 65.78125 0 Z M 26.25 0 "/></g></g></g><g fill="#c9a86a" fill-opacity="1"><g transform="translate(1113.606194, 350.966416)"><g><path d="M 207.859375 4.921875 L 140.4375 -62.171875 L 165.203125 -86.953125 L 232.296875 -19.84375 Z M 122.875 4.921875 C 99.25 4.921875 79.015625 -0.242188 62.171875 -10.578125 C 45.328125 -20.910156 32.394531 -35.316406 23.375 -53.796875 C 14.351562 -72.285156 9.84375 -93.726562 9.84375 -118.125 C 9.84375 -142.507812 14.351562 -163.941406 23.375 -182.421875 C 32.394531 -200.910156 45.328125 -215.320312 62.171875 -225.65625 C 79.015625 -235.988281 99.25 -241.15625 122.875 -241.15625 C 146.5 -241.15625 166.757812 -235.988281 183.65625 -225.65625 C 200.550781 -215.320312 213.507812 -200.910156 222.53125 -182.421875 C 231.5625 -163.941406 236.078125 -142.507812 236.078125 -118.125 C 236.078125 -93.726562 231.5625 -72.285156 222.53125 -53.796875 C 213.507812 -35.316406 200.550781 -20.910156 183.65625 -10.578125 C 166.757812 -0.242188 146.5 4.921875 122.875 4.921875 Z M 122.875 -32.3125 C 138.738281 -32.207031 151.945312 -35.707031 162.5 -42.8125 C 173.050781 -49.925781 180.976562 -59.9375 186.28125 -72.84375 C 191.582031 -85.75 194.234375 -100.84375 194.234375 -118.125 C 194.234375 -135.40625 191.582031 -150.414062 186.28125 -163.15625 C 180.976562 -175.894531 173.050781 -185.816406 162.5 -192.921875 C 151.945312 -200.035156 138.738281 -203.703125 122.875 -203.921875 C 107.019531 -204.023438 93.84375 -200.519531 83.34375 -193.40625 C 72.84375 -186.300781 64.9375 -176.296875 59.625 -163.390625 C 54.320312 -150.492188 51.671875 -135.40625 51.671875 -118.125 C 51.671875 -100.84375 54.296875 -85.828125 59.546875 -73.078125 C 64.796875 -60.335938 72.695312 -50.410156 83.25 -43.296875 C 93.8125 -36.191406 107.019531 -32.53125 122.875 -32.3125 Z M 122.875 -32.3125 "/></g></g></g><g clip-path="url(#3870c4029b)"><g clip-path="url(#de9fe50342)"><g transform="matrix(1, 0, 0, 1, 556, 112)"><g clip-path="url(#9261acfb18)"><g clip-path="url(#917b79a081)"><g clip-path="url(#ef06023d29)"><path fill="#c9a86a" d="M 0.457031 0.8125 L 54.621094 0.8125 L 54.621094 52.355469 L 0.457031 52.355469 Z M 0.457031 0.8125 " fill-opacity="1" fill-rule="nonzero"/></g></g></g></g></g></g><g clip-path="url(#2889670004)"><g transform="matrix(1, 0, 0, 1, 564, 174)"><g clip-path="url(#28b35ead35)"><g clip-path="url(#a19e4ac76b)"><path fill="#ffffff" d="M 0.683594 0.167969 L 38.3125 0.167969 L 38.3125 176.691406 L 0.683594 176.691406 Z M 0.683594 0.167969 " fill-opacity="1" fill-rule="nonzero"/></g></g></g></g></g></g></svg>