<svg width="562" height="153" viewBox="0 0 562 153" fill="none" xmlns="http://www.w3.org/2000/svg">
<path d="M560.366 118.7C561.3 119.692 561.766 120.683 561.766 121.675C561.766 122.725 561.241 123.746 560.191 124.737C558.15 126.721 556.108 126.721 554.066 124.737L530.704 100.587C529.712 99.5957 529.216 98.6041 529.216 97.6124C529.216 96.5624 529.712 95.5416 530.704 94.5499C532.746 92.5666 534.816 92.5666 536.916 94.5499L560.366 118.7ZM504.191 118C491.533 118 482.287 115.083 476.454 109.25C470.621 103.417 467.704 94.1707 467.704 81.5124V41.6124C467.704 28.8374 470.621 19.5624 476.454 13.7874C482.287 7.95408 491.475 5.09575 504.016 5.21242H525.191C537.85 5.21242 547.066 8.12908 552.841 13.9624C558.675 19.7957 561.591 29.0416 561.591 41.6999V81.5124C561.591 94.1707 558.675 103.417 552.841 109.25C547.066 115.083 537.85 118 525.191 118H504.191ZM504.191 108.812H525.191C531.9 108.812 537.237 107.937 541.204 106.187C545.171 104.437 548.029 101.579 549.779 97.6124C551.529 93.6458 552.404 88.2791 552.404 81.5124V41.6999C552.404 34.9916 551.529 29.6541 549.779 25.6874C548.029 21.7207 545.171 18.8624 541.204 17.1124C537.237 15.3041 531.9 14.3999 525.191 14.3999H504.016C497.308 14.3416 491.971 15.1874 488.004 16.9374C484.096 18.6291 481.266 21.4874 479.516 25.5124C477.766 29.4791 476.891 34.8457 476.891 41.6124V81.5124C476.891 88.2791 477.766 93.6458 479.516 97.6124C481.266 101.579 484.125 104.437 488.091 106.187C492.058 107.937 497.425 108.812 504.191 108.812Z" fill="#C9A86A"/>
<path d="M446.834 118C445.375 118 444.238 117.592 443.421 116.775C442.605 115.958 442.196 114.821 442.196 113.363V9.7625C442.196 8.30417 442.605 7.16667 443.421 6.35001C444.238 5.53334 445.375 5.125 446.834 5.125C448.234 5.125 449.342 5.53334 450.159 6.35001C450.975 7.16667 451.384 8.30417 451.384 9.7625V113.363C451.384 114.821 450.975 115.958 450.159 116.775C449.342 117.592 448.234 118 446.834 118Z" fill="#C9A86A"/>
<path d="M370.022 153C363.139 153 357.889 151.571 354.272 148.713C350.656 145.913 348.527 141.479 347.885 135.413C347.71 133.896 348.031 132.7 348.847 131.825C349.664 130.95 350.802 130.513 352.26 130.513C353.718 130.513 354.827 130.892 355.585 131.65C356.343 132.408 356.839 133.546 357.072 135.063C357.481 138.446 358.677 140.75 360.66 141.975C362.643 143.2 365.764 143.813 370.022 143.813H402.572C407.706 143.813 411.177 142.879 412.985 141.013C414.852 139.146 415.785 135.646 415.785 130.513V105.488C413.102 109.571 409.31 112.692 404.41 114.85C399.51 116.95 393.297 118 385.772 118H379.122C368.214 118 360.222 115.492 355.147 110.475C350.072 105.4 347.535 97.4375 347.535 86.5875V66.8125C347.535 55.7875 350.043 47.7958 355.06 42.8375C360.135 37.8208 368.156 35.3125 379.122 35.3125H393.472C399.189 35.3125 403.827 36.0708 407.385 37.5875C410.943 39.1042 413.743 41.4667 415.785 44.675V39.8625C415.785 36.8292 417.331 35.3125 420.422 35.3125C423.456 35.3125 424.972 36.8292 424.972 39.8625V130.513C424.972 138.213 423.164 143.871 419.547 147.488C415.931 151.163 410.272 153 402.572 153H370.022ZM379.122 108.813H385.772C394.872 108.813 402.135 107.383 407.56 104.525C413.043 101.667 415.785 97.3208 415.785 91.4875V62.2625C415.785 55.6708 413.947 51.0625 410.272 48.4375C406.597 45.8125 400.997 44.5 393.472 44.5H379.122C370.781 44.5 364.947 46.1333 361.622 49.4C358.356 52.6083 356.722 58.4125 356.722 66.8125V86.5875C356.722 94.8125 358.356 100.588 361.622 103.913C364.947 107.179 370.781 108.813 379.122 108.813Z" fill="white"/>
<path d="M261.723 118C258.632 118 257.086 116.454 257.086 113.363V39.8625C257.086 36.8292 258.632 35.3125 261.723 35.3125C264.757 35.3125 266.273 36.8292 266.273 39.8625V48.2625C271.815 39.6292 281.848 35.3125 296.373 35.3125H301.273C312.182 35.3125 320.144 37.85 325.161 42.925C330.236 47.9417 332.773 55.9042 332.773 66.8125V113.363C332.773 116.454 331.257 118 328.223 118C325.132 118 323.586 116.454 323.586 113.363V66.8125C323.586 58.4708 321.923 52.6667 318.598 49.4C315.332 46.1333 309.557 44.5 301.273 44.5H296.373C287.332 44.5 280.215 45.9292 275.023 48.7875C269.832 51.6458 266.915 56.1083 266.273 62.175V113.363C266.273 116.454 264.757 118 261.723 118Z" fill="white"/>
<path d="M233.853 118C230.762 118 229.216 116.454 229.216 113.362V39.8624C229.216 36.8291 230.762 35.3124 233.853 35.3124C236.887 35.3124 238.403 36.8291 238.403 39.8624V113.362C238.403 116.454 236.887 118 233.853 118Z" fill="white"/>
<path d="M214.271 118C203.538 118 195.692 115.521 190.734 110.563C185.775 105.604 183.296 97.7876 183.296 87.1126V44.5001H172.884C169.792 44.5001 168.246 42.9542 168.246 39.8625C168.246 36.8292 169.792 35.3125 172.884 35.3125H183.296V16.5C183.296 13.4084 184.813 11.8625 187.846 11.8625C190.938 11.8625 192.484 13.4084 192.484 16.5V35.3125H214.446C217.479 35.3125 218.996 36.8292 218.996 39.8625C218.996 42.9542 217.479 44.5001 214.446 44.5001H192.484V87.1126C192.484 95.2792 194.059 100.938 197.209 104.088C200.417 107.238 206.104 108.813 214.271 108.813C215.963 108.813 217.159 109.192 217.859 109.95C218.617 110.708 218.996 111.846 218.996 113.363C218.996 116.454 217.421 118 214.271 118Z" fill="white"/>
<path d="M114.323 118C105.223 118 98.5437 115.9 94.2853 111.7C90.0853 107.442 87.9854 100.762 87.9854 91.6625C87.9854 82.5625 90.1145 75.8833 94.3728 71.625C98.6312 67.3667 105.281 65.2375 114.323 65.2375H154.135C154.019 57.5375 152.269 52.1708 148.885 49.1375C145.56 46.0458 139.873 44.5 131.823 44.5H121.673C114.265 44.5 108.84 45.2875 105.398 46.8625C101.956 48.4375 99.827 51.1208 99.0104 54.9125C98.602 56.3708 98.0478 57.45 97.3478 58.15C96.7062 58.7917 95.6562 59.1125 94.1978 59.1125C92.6812 59.1125 91.4854 58.7042 90.6104 57.8875C89.7937 57.0125 89.502 55.8458 89.7354 54.3875C90.4937 47.7375 93.4978 42.8958 98.7478 39.8625C104.056 36.8292 111.698 35.3125 121.673 35.3125H131.823C142.731 35.3125 150.694 37.85 155.71 42.925C160.785 47.9417 163.323 55.9042 163.323 66.8125V113.363C163.323 116.454 161.806 118 158.773 118C155.681 118 154.135 116.454 154.135 113.363V104.7C148.535 113.567 138.531 118 124.123 118H114.323ZM114.323 108.813H124.123C129.781 108.813 134.74 108.2 138.998 106.975C143.315 105.692 146.785 103.65 149.41 100.85C152.035 98.05 153.61 94.3167 154.135 89.65V74.425H114.323C107.848 74.425 103.356 75.6792 100.848 78.1875C98.3978 80.6375 97.1729 85.1292 97.1729 91.6625C97.1729 98.1375 98.3978 102.629 100.848 105.138C103.356 107.588 107.848 108.813 114.323 108.813Z" fill="white"/>
<path d="M76.3 118.175C75.0167 118.933 73.85 119.196 72.8 118.962C71.75 118.729 70.8167 118 70 116.775L41.3 71.0999H9.1875V113.362C9.1875 116.454 7.67083 118 4.6375 118C1.54583 118 0 116.454 0 113.362V9.8499C0 6.75823 1.54583 5.2124 4.6375 5.2124H45.5875C55.5625 5.2124 63.0875 7.77907 68.1625 12.9124C73.2958 18.0457 75.8625 25.5999 75.8625 35.5749V40.8249C75.8625 49.6332 73.85 56.5457 69.825 61.5624C65.8 66.5791 59.85 69.6416 51.975 70.7499L77.7875 111.875C79.4208 114.558 78.925 116.658 76.3 118.175ZM9.1875 61.9124H45.5875C52.9375 61.9124 58.275 60.2499 61.6 56.9249C64.9833 53.5416 66.675 48.1749 66.675 40.8249V35.5749C66.675 28.1666 64.9833 22.7999 61.6 19.4749C58.275 16.0916 52.9375 14.3999 45.5875 14.3999H9.1875V61.9124Z" fill="white"/>
<path d="M232.321 6.93721C233.036 5.38747 235.239 5.38747 235.954 6.93721L237.76 10.8525C238.051 11.4842 238.649 11.919 239.34 12.0009L243.622 12.5086C245.317 12.7096 245.997 14.8043 244.744 15.9631L241.579 18.8905C241.068 19.3628 240.839 20.0665 240.975 20.7487L241.815 24.9778C242.148 26.6517 240.366 27.9463 238.877 27.1127L235.114 25.0067C234.507 24.667 233.767 24.667 233.161 25.0067L229.398 27.1127C227.909 27.9463 226.127 26.6517 226.46 24.9778L227.3 20.7487C227.435 20.0665 227.207 19.3628 226.696 18.8905L223.531 15.9631C222.278 14.8043 222.958 12.7096 224.653 12.5086L228.935 12.0009C229.625 11.919 230.224 11.4842 230.515 10.8525L232.321 6.93721Z" fill="#C9A86A"/>
</svg>
